<svg width="382" height="411" viewBox="0 0 382 411" fill="none" xmlns="http://www.w3.org/2000/svg">
<path d="M191 0.440002L0.331207 68.4336L29.4128 320.542L191 410.04L352.587 320.542L381.669 68.4336L191 0.440002Z" fill="#B940FF"/>
<path d="M191 0.440002V45.9056V45.7008V253.163V410.04L352.587 320.542L381.669 68.4336L191 0.440002Z" fill="#AD10E3"/>
<g clip-path="url(#clip0_0_1)">
<path d="M249.093 204.63H265.797V185.699L282.222 195.165L290.574 180.688L274.149 171.222L290.574 161.757L282.222 147.28L265.797 156.746V137.815H249.093V156.746L232.668 147.28L224.316 161.757L240.741 171.222L224.316 180.688L232.668 195.165L249.093 185.699V204.63ZM79.2717 304.852C73.147 304.852 67.9038 302.672 63.5423 298.31C59.1808 293.949 57 288.706 57 282.581V126.679C57 120.554 59.1808 115.311 63.5423 110.95C67.9038 106.588 73.147 104.407 79.2717 104.407H301.988C308.113 104.407 313.356 106.588 317.718 110.95C322.079 115.311 324.26 120.554 324.26 126.679V282.581C324.26 288.706 322.079 293.949 317.718 298.31C313.356 302.672 308.113 304.852 301.988 304.852H79.2717ZM157.222 226.902C166.502 226.902 174.39 223.654 180.886 217.158C187.382 210.662 190.63 202.774 190.63 193.494C190.63 184.214 187.382 176.326 180.886 169.831C174.39 163.335 166.502 160.087 157.222 160.087C147.943 160.087 140.055 163.335 133.559 169.831C127.063 176.326 123.815 184.214 123.815 193.494C123.815 202.774 127.063 210.662 133.559 217.158C140.055 223.654 147.943 226.902 157.222 226.902ZM80.3852 282.581H234.06C226.265 268.661 215.5 257.757 201.766 249.869C188.032 241.981 173.184 238.037 157.222 238.037C141.261 238.037 126.413 241.981 112.679 249.869C98.945 257.757 88.1803 268.661 80.3852 282.581Z" fill="white"/>
</g>
<defs>
<clipPath id="clip0_0_1">
<rect width="267.26" height="267.26" fill="white" transform="translate(57 71)"/>
</clipPath>
</defs>
</svg>
